<svg width="124" height="124" viewBox="0 0 124 124" fill="none" xmlns="http://www.w3.org/2000/svg">
<circle cx="62" cy="62" r="62" fill="#00B067"/>
<g clip-path="url(#clip0_81_5)">
<path d="M77.057 72.0328L75.1338 73.9446C75.1338 73.9446 70.5628 78.4898 58.0862 66.0836C45.6096 53.678 50.1805 49.133 50.1805 49.133L51.3914 47.9289C54.3748 44.9626 54.656 40.2002 52.053 36.7235L46.7291 29.6116C43.5076 25.3085 37.2827 24.74 33.5903 28.4114L26.9631 35.001C25.1323 36.8215 23.9054 39.1813 24.0542 41.7992C24.4348 48.4965 27.465 62.9064 44.3735 79.7189C62.3042 97.5476 79.1285 98.2561 86.0086 97.6148C88.1847 97.4121 90.0771 96.3038 91.6022 94.7871L97.6003 88.8237C101.649 84.7978 100.507 77.8961 95.327 75.0804L87.2605 70.6952C83.859 68.8462 79.7154 69.3892 77.057 72.0328Z" fill="white"/>
</g>
<defs>
<clipPath id="clip0_81_5">
<rect width="76" height="76" fill="white" transform="translate(24 24)"/>
</clipPath>
</defs>
</svg>
