<svg width="62" height="62" viewBox="0 0 62 62" fill="none" xmlns="http://www.w3.org/2000/svg">
<g clip-path="url(#clip0_73_2)">
<path d="M40.7503 12.8649L49.141 21.2493C49.454 21.5647 49.8266 21.8146 50.2371 21.9845C50.6476 22.1545 51.0878 22.2411 51.5321 22.2393C52.1973 22.2413 52.8483 22.0473 53.4038 21.6815C53.9594 21.3157 54.3949 20.7944 54.6559 20.1826C54.917 19.5708 54.992 18.8956 54.8716 18.2415C54.7512 17.5873 54.4408 16.9831 53.9791 16.5043L53.9398 16.4505L45.5471 8.05988C44.9058 7.44823 44.0506 7.11173 43.1645 7.12231C42.2783 7.1329 41.4315 7.48972 40.8049 8.11651C40.1784 8.7433 39.8219 9.59031 39.8117 10.4765C39.8015 11.3626 40.1384 12.2176 40.7503 12.8587V12.8649ZM41.9345 9.37221C42.2407 9.03437 42.6685 8.83195 43.1239 8.80947C43.5793 8.78699 44.0249 8.94629 44.3629 9.25234L52.7535 17.6347L52.7887 17.6678C53.0847 17.9982 53.2415 18.4303 53.2264 18.8736C53.2113 19.317 53.0254 19.7374 52.7077 20.0469C52.3899 20.3564 51.9647 20.5311 51.5211 20.5345C51.0775 20.5379 50.6498 20.3698 50.3273 20.0651L41.9345 11.6807C41.6482 11.3645 41.4896 10.9531 41.4896 10.5264C41.4896 10.0998 41.6482 9.68843 41.9345 9.37221Z" fill="#DB0000"/>
<mask id="path-2-inside-1_73_2" fill="white">
<path d="M0.710922 62C0.795038 62.0145 0.881005 62.0145 0.965122 62L10.3809 60.6629C10.5601 60.6383 10.7264 60.5555 10.8541 60.4273L36.3341 34.9391L38.7025 37.3468C39.7208 38.3613 41.0997 38.9309 42.5372 38.9309C43.9746 38.9309 45.3535 38.3613 46.3719 37.3468L60.4252 23.2934C61.4386 22.2749 62.0075 20.8965 62.0075 19.4598C62.0075 18.023 61.4386 16.6446 60.4252 15.6261L46.3719 1.57275C45.3561 0.563475 43.983 -0.00401847 42.5511 -0.0063405C41.1192 -0.00866253 39.7442 0.554375 38.7252 1.56035L24.6719 15.6137C23.6584 16.6322 23.0896 18.0106 23.0896 19.4474C23.0896 20.8841 23.6584 22.2625 24.6719 23.281L27.0547 25.6618L14.9172 37.82C14.8385 37.897 14.7759 37.989 14.7332 38.0905C14.6905 38.192 14.6685 38.301 14.6685 38.4111C14.6685 38.5212 14.6905 38.6302 14.7332 38.7317C14.7759 38.8332 14.8385 38.9252 14.9172 39.0022L15.5372 39.6222C15.9647 40.05 16.2048 40.6301 16.2046 41.2349C16.2044 41.8397 15.964 42.4197 15.5362 42.8472C15.1084 43.2747 14.5282 43.5148 13.9234 43.5146C13.3186 43.5144 12.7387 43.274 12.3111 42.8462L11.6911 42.2262C11.6141 42.1474 11.5222 42.0849 11.4207 42.0421C11.3192 41.9994 11.2102 41.9774 11.1001 41.9774C10.9899 41.9774 10.8809 41.9994 10.7794 42.0421C10.6779 42.0849 10.586 42.1474 10.509 42.2262L7.97732 44.7682C7.86693 44.8763 7.78906 45.0132 7.75253 45.1633C7.716 45.3134 7.72228 45.4708 7.77065 45.6176L8.57252 48.6142L5.52832 47.8124C5.3874 47.7721 5.23831 47.77 5.09631 47.8063C4.95432 47.8426 4.82453 47.916 4.72025 48.019L1.58099 51.1645C1.44284 51.3023 1.35791 51.4846 1.34125 51.6791L-1.17155e-05 61.0473C-0.0178255 61.1568 -0.0134245 61.2687 0.0129291 61.3765C0.0392827 61.4842 0.0870499 61.5855 0.153386 61.6744C0.219722 61.7633 0.30327 61.838 0.399054 61.8939C0.494838 61.9498 0.6009 61.9859 0.710922 62ZM28.7804 25.0832L25.8106 22.1134C25.1109 21.4091 24.7182 20.4566 24.7182 19.4639C24.7182 18.4711 25.1109 17.5187 25.8106 16.8144L39.8639 2.76109C40.5686 2.06129 41.5213 1.66855 42.5144 1.66855C43.5075 1.66855 44.4603 2.06129 45.1649 2.76109L59.2183 16.8144L59.2451 16.7876C59.9443 17.4921 60.3366 18.4444 60.3366 19.437C60.3366 20.4296 59.9443 21.3819 59.2451 22.0865L45.1918 36.1398C44.4872 36.8396 43.5344 37.2324 42.5413 37.2324C41.5482 37.2324 40.5954 36.8396 39.8908 36.1398L36.921 33.17L28.7804 25.0832ZM6.72079 59.4745L33.7941 32.4157L35.1333 33.7549L9.88486 59.0405L6.72079 59.4745ZM1.80212 60.171L2.95325 52.142L5.55519 49.538L9.52939 50.5714C9.67434 50.6095 9.82671 50.6095 9.97165 50.5714C10.0785 50.5427 10.1785 50.4931 10.2661 50.4255C10.3536 50.3579 10.4269 50.2736 10.4816 50.1775C10.5364 50.0814 10.5716 49.9754 10.5851 49.8657C10.5987 49.7559 10.5904 49.6445 10.5607 49.538L9.50665 45.5762L11.1125 43.9704C11.8648 44.6561 12.8524 45.0255 13.8701 45.0015C14.8877 44.9776 15.857 44.5623 16.5762 43.842C17.2955 43.1217 17.7094 42.1518 17.7318 41.1341C17.7542 40.1165 17.3834 39.1293 16.6966 38.378L28.2389 26.8667L32.6285 31.2563L3.96385 59.8631L1.80212 60.171Z"/>
</mask>
<path d="M0.710922 62C0.795038 62.0145 0.881005 62.0145 0.965122 62L10.3809 60.6629C10.5601 60.6383 10.7264 60.5555 10.8541 60.4273L36.3341 34.9391L38.7025 37.3468C39.7208 38.3613 41.0997 38.9309 42.5372 38.9309C43.9746 38.9309 45.3535 38.3613 46.3719 37.3468L60.4252 23.2934C61.4386 22.2749 62.0075 20.8965 62.0075 19.4598C62.0075 18.023 61.4386 16.6446 60.4252 15.6261L46.3719 1.57275C45.3561 0.563475 43.983 -0.00401847 42.5511 -0.0063405C41.1192 -0.00866253 39.7442 0.554375 38.7252 1.56035L24.6719 15.6137C23.6584 16.6322 23.0896 18.0106 23.0896 19.4474C23.0896 20.8841 23.6584 22.2625 24.6719 23.281L27.0547 25.6618L14.9172 37.82C14.8385 37.897 14.7759 37.989 14.7332 38.0905C14.6905 38.192 14.6685 38.301 14.6685 38.4111C14.6685 38.5212 14.6905 38.6302 14.7332 38.7317C14.7759 38.8332 14.8385 38.9252 14.9172 39.0022L15.5372 39.6222C15.9647 40.05 16.2048 40.6301 16.2046 41.2349C16.2044 41.8397 15.964 42.4197 15.5362 42.8472C15.1084 43.2747 14.5282 43.5148 13.9234 43.5146C13.3186 43.5144 12.7387 43.274 12.3111 42.8462L11.6911 42.2262C11.6141 42.1474 11.5222 42.0849 11.4207 42.0421C11.3192 41.9994 11.2102 41.9774 11.1001 41.9774C10.9899 41.9774 10.8809 41.9994 10.7794 42.0421C10.6779 42.0849 10.586 42.1474 10.509 42.2262L7.97732 44.7682C7.86693 44.8763 7.78906 45.0132 7.75253 45.1633C7.716 45.3134 7.72228 45.4708 7.77065 45.6176L8.57252 48.6142L5.52832 47.8124C5.3874 47.7721 5.23831 47.77 5.09631 47.8063C4.95432 47.8426 4.82453 47.916 4.72025 48.019L1.58099 51.1645C1.44284 51.3023 1.35791 51.4846 1.34125 51.6791L-1.17155e-05 61.0473C-0.0178255 61.1568 -0.0134245 61.2687 0.0129291 61.3765C0.0392827 61.4842 0.0870499 61.5855 0.153386 61.6744C0.219722 61.7633 0.30327 61.838 0.399054 61.8939C0.494838 61.9498 0.6009 61.9859 0.710922 62ZM28.7804 25.0832L25.8106 22.1134C25.1109 21.4091 24.7182 20.4566 24.7182 19.4639C24.7182 18.4711 25.1109 17.5187 25.8106 16.8144L39.8639 2.76109C40.5686 2.06129 41.5213 1.66855 42.5144 1.66855C43.5075 1.66855 44.4603 2.06129 45.1649 2.76109L59.2183 16.8144L59.2451 16.7876C59.9443 17.4921 60.3366 18.4444 60.3366 19.437C60.3366 20.4296 59.9443 21.3819 59.2451 22.0865L45.1918 36.1398C44.4872 36.8396 43.5344 37.2324 42.5413 37.2324C41.5482 37.2324 40.5954 36.8396 39.8908 36.1398L36.921 33.17L28.7804 25.0832ZM6.72079 59.4745L33.7941 32.4157L35.1333 33.7549L9.88486 59.0405L6.72079 59.4745ZM1.80212 60.171L2.95325 52.142L5.55519 49.538L9.52939 50.5714C9.67434 50.6095 9.82671 50.6095 9.97165 50.5714C10.0785 50.5427 10.1785 50.4931 10.2661 50.4255C10.3536 50.3579 10.4269 50.2736 10.4816 50.1775C10.5364 50.0814 10.5716 49.9754 10.5851 49.8657C10.5987 49.7559 10.5904 49.6445 10.5607 49.538L9.50665 45.5762L11.1125 43.9704C11.8648 44.6561 12.8524 45.0255 13.8701 45.0015C14.8877 44.9776 15.857 44.5623 16.5762 43.842C17.2955 43.1217 17.7094 42.1518 17.7318 41.1341C17.7542 40.1165 17.3834 39.1293 16.6966 38.378L28.2389 26.8667L32.6285 31.2563L3.96385 59.8631L1.80212 60.171Z" fill="#DB0000"/>
<path d="M0.710922 62L1.55803 57.0723L1.45237 57.0541L1.34602 57.0405L0.710922 62ZM0.965122 62L0.262122 57.0497L0.189903 57.0599L0.118014 57.0723L0.965122 62ZM10.3809 60.6629L9.70084 55.7093L9.68935 55.7109L9.67786 55.7125L10.3809 60.6629ZM10.8541 60.4273L7.31801 56.8923L7.31161 56.8987L10.8541 60.4273ZM36.3341 34.9391L39.8985 31.4327L36.3627 27.8382L32.7979 31.4041L36.3341 34.9391ZM38.7025 37.3468L35.138 40.8531L35.1557 40.8711L35.1735 40.8889L38.7025 37.3468ZM46.3719 37.3468L49.9008 40.8889L49.9074 40.8823L46.3719 37.3468ZM60.4252 23.2934L63.9607 26.829L63.9696 26.82L60.4252 23.2934ZM62.0075 19.4598L57.0075 19.4598L62.0075 19.4598ZM60.4252 15.6261L63.9696 12.0995L63.9607 12.0906L60.4252 15.6261ZM46.3719 1.57275L49.9074 -1.96278L49.9017 -1.96843L49.8961 -1.97407L46.3719 1.57275ZM38.7252 1.56035L35.2125 -1.99788L35.201 -1.98657L35.1897 -1.97518L38.7252 1.56035ZM24.6719 15.6137L21.1363 12.0781L21.1274 12.0871L24.6719 15.6137ZM23.0896 19.4474L18.0896 19.4474L23.0896 19.4474ZM24.6719 23.281L21.1274 26.8076L21.1326 26.8129L21.1379 26.8181L24.6719 23.281ZM27.0547 25.6618L30.5933 29.1943L34.1243 25.6573L30.5887 22.1247L27.0547 25.6618ZM14.9172 37.82L18.4128 41.395L18.4344 41.3739L18.4557 41.3525L14.9172 37.82ZM14.9172 39.0022L18.4527 35.4666L18.4329 35.4468L18.4128 35.4272L14.9172 39.0022ZM15.5372 39.6222L19.0739 36.0878L19.0727 36.0866L15.5372 39.6222ZM12.3111 42.8462L15.8478 39.3118L15.8467 39.3106L12.3111 42.8462ZM11.6911 42.2262L8.11612 45.7218L8.13574 45.7418L8.15559 45.7617L11.6911 42.2262ZM10.509 42.2262L14.0517 45.7545L14.0679 45.7382L14.084 45.7218L10.509 42.2262ZM7.97732 44.7682L11.4759 48.3402L11.4981 48.3185L11.52 48.2965L7.97732 44.7682ZM7.77065 45.6176L12.6007 44.3251L12.5639 44.1874L12.5193 44.0521L7.77065 45.6176ZM8.57252 48.6142L7.29893 53.4493L15.6294 55.6436L13.4026 47.3218L8.57252 48.6142ZM5.52832 47.8124L4.15426 52.6198L4.20435 52.6342L4.25473 52.6474L5.52832 47.8124ZM4.72025 48.019L1.20681 44.4615L1.19398 44.4742L1.18123 44.487L4.72025 48.019ZM1.58099 51.1645L5.11275 54.7038L5.12001 54.6965L1.58099 51.1645ZM1.34125 51.6791L6.29078 52.3877L6.31089 52.2473L6.323 52.1059L1.34125 51.6791ZM-1.17155e-05 61.0473L4.93509 61.8503L4.94275 61.8032L4.94952 61.7559L-1.17155e-05 61.0473ZM28.7804 25.0832L25.2449 28.6187L25.2507 28.6245L25.2566 28.6304L28.7804 25.0832ZM25.8106 22.1134L22.2635 25.6373L22.2693 25.6431L22.2751 25.6489L25.8106 22.1134ZM24.7182 19.4639L19.7182 19.4639L24.7182 19.4639ZM25.8106 16.8144L22.2751 13.2789L22.2693 13.2847L22.2635 13.2905L25.8106 16.8144ZM39.8639 2.76109L36.3406 -0.786589L36.3345 -0.780529L36.3284 -0.774448L39.8639 2.76109ZM42.5144 1.66855V6.66855V1.66855ZM45.1649 2.76109L48.7005 -0.774448L48.6944 -0.780529L48.6883 -0.786589L45.1649 2.76109ZM59.2183 16.8144L55.6827 20.35L59.2181 23.8854L62.7537 20.3501L59.2183 16.8144ZM59.2451 16.7876L62.7942 13.2656L59.2588 9.70303L55.7097 13.2519L59.2451 16.7876ZM59.2451 22.0865L62.7807 25.622L62.7874 25.6153L62.7942 25.6085L59.2451 22.0865ZM45.1918 36.1398L48.7151 39.6875L48.7212 39.6814L48.7273 39.6754L45.1918 36.1398ZM42.5413 37.2324V42.2324V37.2324ZM39.8908 36.1398L36.3553 39.6754L36.3613 39.6814L36.3674 39.6875L39.8908 36.1398ZM36.921 33.17L40.4565 29.6345L40.4507 29.6286L40.4448 29.6228L36.921 33.17ZM6.72079 59.4745L3.1862 55.9381L-7.33 66.4487L7.40025 64.4282L6.72079 59.4745ZM33.7941 32.4157L37.3297 28.8802L33.7951 25.3456L30.2595 28.8792L33.7941 32.4157ZM35.1333 33.7549L38.6715 37.2878L42.2018 33.7523L38.6689 30.2194L35.1333 33.7549ZM9.88486 59.0405L10.5643 63.9942L12.2329 63.7653L13.423 62.5735L9.88486 59.0405ZM1.80212 60.171L-3.14727 59.4614L-4.09351 66.0613L2.50724 65.121L1.80212 60.171ZM2.95325 52.142L-0.583683 48.6079L-1.75996 49.7851L-1.99614 51.4324L2.95325 52.142ZM5.55519 49.538L6.8134 44.6989L4.04216 43.9784L2.01825 46.0039L5.55519 49.538ZM9.52939 50.5714L10.8032 45.7363L10.7954 45.7343L10.7876 45.7323L9.52939 50.5714ZM9.97165 50.5714L11.2455 55.4064L11.2573 55.4033L11.2691 55.4001L9.97165 50.5714ZM10.5607 49.538L5.72873 50.8235L5.73654 50.8529L5.7447 50.8821L10.5607 49.538ZM9.50665 45.5762L5.97112 42.0407L3.93408 44.0777L4.67473 46.8617L9.50665 45.5762ZM11.1125 43.9704L14.4807 40.2752L10.9526 37.0592L7.57692 40.4349L11.1125 43.9704ZM16.6966 38.378L13.1658 34.8377L9.77606 38.2184L13.0063 41.7517L16.6966 38.378ZM28.2389 26.8667L31.7745 23.3312L28.2437 19.8004L24.7081 23.3264L28.2389 26.8667ZM32.6285 31.2563L36.1605 34.7954L39.7032 31.2599L36.1641 27.7208L32.6285 31.2563ZM3.96385 59.8631L4.66897 64.8131L6.31731 64.5783L7.49581 63.4022L3.96385 59.8631ZM-0.136186 66.9277C0.508557 67.0386 1.16749 67.0386 1.81223 66.9277L0.118014 57.0723C0.594524 56.9904 1.08152 56.9904 1.55803 57.0723L-0.136186 66.9277ZM1.66812 66.9503L11.0839 65.6132L9.67786 55.7125L0.262122 57.0497L1.66812 66.9503ZM11.0609 65.6164C12.3245 65.443 13.4964 64.8596 14.3966 63.9558L7.31161 56.8987C7.9564 56.2514 8.79577 55.8336 9.70084 55.7093L11.0609 65.6164ZM14.3902 63.9622L39.8702 38.474L32.7979 31.4041L7.31801 56.8923L14.3902 63.9622ZM32.7696 38.4454L35.138 40.8531L42.2669 33.8404L39.8985 31.4327L32.7696 38.4454ZM35.1735 40.8889C37.129 42.8371 39.7768 43.9309 42.5372 43.9309V33.9309C42.4225 33.9309 42.3126 33.8855 42.2314 33.8046L35.1735 40.8889ZM42.5372 43.9309C45.2975 43.9309 47.9453 42.8371 49.9008 40.8889L42.8429 33.8046C42.7617 33.8855 42.6518 33.9309 42.5372 33.9309V43.9309ZM49.9074 40.8823L63.9607 26.829L56.8897 19.7579L42.8363 33.8112L49.9074 40.8823ZM63.9696 26.82C65.9153 24.8646 67.0075 22.2183 67.0075 19.4598L57.0075 19.4598C57.0075 19.5748 56.9619 19.6852 56.8808 19.7668L63.9696 26.82ZM67.0075 19.4598C67.0075 16.7012 65.9153 14.0549 63.9696 12.0995L56.8808 19.1527C56.9619 19.2343 57.0075 19.3447 57.0075 19.4598L67.0075 19.4598ZM63.9607 12.0906L49.9074 -1.96278L42.8363 5.10829L56.8897 19.1616L63.9607 12.0906ZM49.8961 -1.97407C47.9456 -3.91214 45.3088 -5.00188 42.5592 -5.00633L42.543 4.99365C42.6572 4.99384 42.7666 5.03909 42.8476 5.11958L49.8961 -1.97407ZM42.5592 -5.00633C39.8095 -5.01079 37.1693 -3.92962 35.2125 -1.99788L42.2379 5.11859C42.3191 5.03837 42.4288 4.99347 42.543 4.99365L42.5592 -5.00633ZM35.1897 -1.97518L21.1363 12.0782L28.2074 19.1492L42.2607 5.09589L35.1897 -1.97518ZM21.1274 12.0871C19.1818 14.0425 18.0896 16.6888 18.0896 19.4474H28.0896C28.0896 19.3323 28.1351 19.2219 28.2163 19.1403L21.1274 12.0871ZM18.0896 19.4474C18.0896 22.2059 19.1818 24.8522 21.1274 26.8076L28.2163 19.7544C28.1351 19.6728 28.0896 19.5624 28.0896 19.4474L18.0896 19.4474ZM21.1379 26.8181L23.5207 29.1989L30.5887 22.1247L28.2059 19.7439L21.1379 26.8181ZM23.5162 22.1293L11.3786 34.2875L18.4557 41.3525L30.5933 29.1943L23.5162 22.1293ZM11.4216 34.245C10.8666 34.7877 10.4256 35.4357 10.1246 36.1511L19.3418 40.0298C19.1261 40.5422 18.8103 41.0064 18.4128 41.395L11.4216 34.245ZM10.1246 36.1511C9.82353 36.8666 9.66846 37.6349 9.66846 38.4111H19.6685C19.6685 38.967 19.5574 39.5173 19.3418 40.0298L10.1246 36.1511ZM9.66846 38.4111C9.66846 39.1872 9.82353 39.9556 10.1246 40.671L19.3418 36.7924C19.5574 37.3049 19.6685 37.8552 19.6685 38.4111H9.66846ZM10.1246 40.671C10.4256 41.3865 10.8666 42.0345 11.4216 42.5772L18.4128 35.4272C18.8103 35.8158 19.1261 36.28 19.3418 36.7924L10.1246 40.671ZM11.3817 42.5377L12.0017 43.1577L19.0727 36.0866L18.4527 35.4666L11.3817 42.5377ZM12.0005 43.1566C11.4907 42.6464 11.2044 41.9546 11.2046 41.2333L21.2046 41.2365C21.2052 39.3056 20.4388 37.4535 19.0739 36.0878L12.0005 43.1566ZM11.2046 41.2333C11.2048 40.512 11.4916 39.8204 12.0018 39.3105L19.0706 46.3839C20.4363 45.0189 21.204 43.1674 21.2046 41.2365L11.2046 41.2333ZM12.0018 39.3105C12.5119 38.8007 13.2038 38.5144 13.925 38.5146L13.9218 48.5146C15.8527 48.5152 17.7048 47.7488 19.0706 46.3839L12.0018 39.3105ZM13.925 38.5146C14.6463 38.5148 15.3379 38.8016 15.8478 39.3118L8.77445 46.3806C10.1394 47.7463 11.9909 48.514 13.9218 48.5146L13.925 38.5146ZM15.8467 39.3106L15.2267 38.6906L8.15559 45.7617L8.77559 46.3817L15.8467 39.3106ZM15.2661 38.7305C14.7235 38.1756 14.0755 37.7346 13.36 37.4336L9.48137 46.6507C8.96891 46.4351 8.50475 46.1192 8.11612 45.7218L15.2661 38.7305ZM13.36 37.4336C12.6446 37.1325 11.8762 36.9774 11.1001 36.9774V46.9774C10.5442 46.9774 9.99382 46.8664 9.48137 46.6507L13.36 37.4336ZM11.1001 36.9774C10.3239 36.9774 9.55556 37.1325 8.84011 37.4336L12.7187 46.6507C12.2063 46.8664 11.6559 46.9774 11.1001 46.9774V36.9774ZM8.84011 37.4336C8.12464 37.7346 7.47659 38.1756 6.93399 38.7305L14.084 45.7218C13.6954 46.1192 13.2312 46.4351 12.7187 46.6507L8.84011 37.4336ZM6.96626 38.6978L4.4346 41.2398L11.52 48.2965L14.0517 45.7545L6.96626 38.6978ZM4.4787 41.1961C3.70063 41.9582 3.15173 42.923 2.89426 43.9812L12.6108 46.3454C12.4264 47.1033 12.0332 47.7944 11.4759 48.3402L4.4787 41.1961ZM2.89426 43.9812C2.63679 45.0394 2.68105 46.1486 3.02203 47.183L12.5193 44.0521C12.7635 44.793 12.7952 45.5874 12.6108 46.3454L2.89426 43.9812ZM2.94059 46.91L3.74245 49.9067L13.4026 47.3218L12.6007 44.3251L2.94059 46.91ZM9.84612 43.7791L6.80192 42.9773L4.25473 52.6474L7.29893 53.4493L9.84612 43.7791ZM6.90238 43.0049C5.90915 42.721 4.85827 42.7062 3.85742 42.9622L6.33521 52.6504C5.61834 52.8337 4.86565 52.8232 4.15426 52.6198L6.90238 43.0049ZM3.85742 42.9622C2.85656 43.2182 1.94179 43.7357 1.20681 44.4615L8.2337 51.5765C7.70728 52.0964 7.05208 52.467 6.33521 52.6504L3.85742 42.9622ZM1.18123 44.487L-1.95803 47.6324L5.12001 54.6965L8.25928 51.5511L1.18123 44.487ZM-1.95076 47.6252C-2.92449 48.5968 -3.52307 49.8817 -3.64049 51.2523L6.323 52.1059C6.2389 53.0876 5.81017 54.0079 5.11274 54.7038L-1.95076 47.6252ZM-3.60827 50.9704L-4.94954 60.3386L4.94952 61.7559L6.29078 52.3877L-3.60827 50.9704ZM-4.93511 60.2443C-5.06067 61.016 -5.02965 61.805 -4.8439 62.5644L4.86976 60.1885C5.0028 60.7324 5.02502 61.2976 4.93509 61.8503L-4.93511 60.2443ZM-4.8439 62.5644C-4.65814 63.3239 -4.32145 64.0381 -3.8539 64.6647L4.16068 58.6842C4.49555 59.1329 4.73671 59.6445 4.86976 60.1885L-4.8439 62.5644ZM-3.8539 64.6647C-3.3864 65.2912 -2.79755 65.8173 -2.12234 66.2116L2.92045 57.5762C3.40409 57.8586 3.82585 58.2355 4.16068 58.6842L-3.8539 64.6647ZM-2.12234 66.2116C-1.44717 66.6059 -0.699599 66.8602 0.0758235 66.9595L1.34602 57.0405C1.9014 57.1116 2.43684 57.2938 2.92045 57.5762L-2.12234 66.2116ZM32.3159 21.5476L29.3461 18.5778L22.2751 25.6489L25.2449 28.6187L32.3159 21.5476ZM29.3577 18.5894C29.5886 18.8219 29.7182 19.1362 29.7182 19.4639L19.7182 19.4639C19.7182 21.777 20.6332 23.9963 22.2635 25.6373L29.3577 18.5894ZM29.7182 19.4639C29.7182 19.7915 29.5886 20.1059 29.3577 20.3383L22.2635 13.2905C20.6332 14.9315 19.7182 17.1507 19.7182 19.4639L29.7182 19.4639ZM29.3461 20.35L43.3995 6.29662L36.3284 -0.774448L22.2751 13.2789L29.3461 20.35ZM43.3873 6.30876C43.1552 6.53921 42.8415 6.66855 42.5144 6.66855V-3.33145C40.2012 -3.33145 37.9819 -2.41664 36.3406 -0.786589L43.3873 6.30876ZM42.5144 6.66855C42.1874 6.66855 41.8736 6.53921 41.6416 6.30876L48.6883 -0.786589C47.047 -2.41664 44.8276 -3.33145 42.5144 -3.33145V6.66855ZM41.6294 6.29662L55.6827 20.35L62.7538 13.2789L48.7005 -0.774448L41.6294 6.29662ZM62.7537 20.3501L62.7806 20.3232L55.7097 13.2519L55.6828 13.2788L62.7537 20.3501ZM55.6961 20.3095C55.4658 20.0775 55.3366 19.7639 55.3366 19.437H65.3366C65.3366 17.125 64.4227 14.9067 62.7942 13.2656L55.6961 20.3095ZM55.3366 19.437C55.3366 19.1102 55.4658 18.7965 55.6961 18.5645L62.7942 25.6085C64.4227 23.9674 65.3366 21.749 65.3366 19.437H55.3366ZM55.7096 18.551L41.6563 32.6043L48.7273 39.6754L62.7807 25.622L55.7096 18.551ZM41.6684 32.5921C41.9005 32.3617 42.2142 32.2324 42.5413 32.2324V42.2324C44.8545 42.2324 47.0738 41.3175 48.7151 39.6875L41.6684 32.5921ZM42.5413 32.2324C42.8683 32.2324 43.1821 32.3617 43.4141 32.5921L36.3674 39.6875C38.0087 41.3175 40.2281 42.2324 42.5413 42.2324L42.5413 32.2324ZM43.4263 32.6043L40.4565 29.6345L33.3855 36.7056L36.3553 39.6754L43.4263 32.6043ZM40.4448 29.6228L32.3042 21.5359L25.2566 28.6304L33.3972 36.7172L40.4448 29.6228ZM10.2554 63.011L37.3287 35.9522L30.2595 28.8792L3.1862 55.9381L10.2554 63.011ZM30.2586 35.9512L31.5978 37.2904L38.6689 30.2194L37.3297 28.8802L30.2586 35.9512ZM31.5952 30.222L6.34672 55.5076L13.423 62.5735L38.6715 37.2878L31.5952 30.222ZM9.20539 54.0869L6.04132 54.5209L7.40025 64.4282L10.5643 63.9942L9.20539 54.0869ZM6.75151 60.8806L7.90265 52.8516L-1.99614 51.4324L-3.14727 59.4614L6.75151 60.8806ZM6.49019 55.6761L9.09213 53.0721L2.01825 46.0039L-0.583683 48.6079L6.49019 55.6761ZM4.29697 54.3771L8.27117 55.4105L10.7876 45.7323L6.8134 44.6989L4.29697 54.3771ZM8.25558 55.4064C9.23549 55.6645 10.2656 55.6645 11.2455 55.4064L8.69785 45.7363C9.38786 45.5545 10.1132 45.5545 10.8032 45.7363L8.25558 55.4064ZM11.2691 55.4001C12.0139 55.2 12.7117 54.8542 13.3222 54.3828L7.20993 46.4682C7.64532 46.1319 8.14301 45.8853 8.67422 45.7426L11.2691 55.4001ZM13.3222 54.3828C13.9326 53.9113 14.4436 53.3236 14.8255 52.6535L6.13775 47.7015C6.41014 47.2236 6.77455 46.8044 7.20993 46.4682L13.3222 54.3828ZM14.8255 52.6535C15.2075 51.9834 15.4528 51.2443 15.5474 50.4789L5.62289 49.2525C5.69035 48.7066 5.86533 48.1794 6.13775 47.7015L14.8255 52.6535ZM15.5474 50.4789C15.642 49.7134 15.5839 48.9368 15.3766 48.1939L5.7447 50.8821C5.59683 50.3523 5.55543 49.7984 5.62289 49.2525L15.5474 50.4789ZM15.3926 48.2525L14.3386 44.2907L4.67473 46.8617L5.72873 50.8235L15.3926 48.2525ZM13.0422 49.1118L14.648 47.506L7.57692 40.4349L5.97112 42.0407L13.0422 49.1118ZM7.7442 47.6657C9.44743 49.2182 11.6836 50.0543 13.9876 50.0002L13.7526 40.0029C14.0213 39.9966 14.2821 40.0941 14.4807 40.2752L7.7442 47.6657ZM13.9876 50.0002C16.2916 49.946 18.486 49.0057 20.1144 47.3749L13.0381 40.3091C13.228 40.1189 13.4839 40.0092 13.7526 40.0029L13.9876 50.0002ZM20.1144 47.3749C21.7428 45.7441 22.6798 43.5483 22.7306 41.2442L12.733 41.024C12.7389 40.7553 12.8482 40.4993 13.0381 40.3091L20.1144 47.3749ZM22.7306 41.2442C22.7813 38.9402 21.9419 36.7052 20.3869 35.0043L13.0063 41.7517C12.825 41.5534 12.7271 41.2927 12.733 41.024L22.7306 41.2442ZM20.2274 41.9183L31.7697 30.407L24.7081 23.3264L13.1658 34.8377L20.2274 41.9183ZM24.7034 30.4022L29.093 34.7918L36.1641 27.7208L31.7745 23.3312L24.7034 30.4022ZM29.0966 27.7172L0.431895 56.324L7.49581 63.4022L36.1605 34.7954L29.0966 27.7172ZM3.25874 54.9131L1.09701 55.221L2.50724 65.121L4.66897 64.8131L3.25874 54.9131Z" fill="#DB0000" mask="url(#path-2-inside-1_73_2)"/>
</g>
<defs>
<clipPath id="clip0_73_2">
<rect width="62" height="62" fill="white"/>
</clipPath>
</defs>
</svg>
