<svg width="62" height="62" viewBox="0 0 62 62" fill="none" xmlns="http://www.w3.org/2000/svg">
<g clip-path="url(#clip0_73_5)">
<path d="M33.2275 25.6723C33.2221 24.5734 32.7831 23.521 32.0061 22.7439C31.229 21.9669 30.1766 21.5279 29.0777 21.5225H29.0591C27.9694 21.5219 26.924 21.9538 26.1526 22.7234C25.3811 23.4929 24.9465 24.5372 24.9443 25.6269V25.6537C24.9498 26.7527 25.3887 27.8051 26.1658 28.5821C26.9429 29.3592 27.9953 29.7982 29.0942 29.8036H29.1107C30.2011 29.8047 31.2473 29.3727 32.0193 28.6027C32.7913 27.8326 33.2259 26.7875 33.2275 25.6971V25.6723ZM30.5595 27.1376C30.3695 27.3274 30.1439 27.4779 29.8956 27.5803C29.6474 27.6828 29.3814 27.7353 29.1128 27.7349C28.5602 27.7311 28.0314 27.5096 27.641 27.1184C27.2507 26.7273 27.0302 26.1981 27.0275 25.6455C27.0256 25.3777 27.0765 25.1122 27.1773 24.8641C27.2781 24.616 27.4268 24.3902 27.6149 24.1996C27.803 24.009 28.0268 23.8573 28.2735 23.7533C28.5203 23.6493 28.7851 23.5949 29.0529 23.5933H29.0797C29.6329 23.5965 30.1624 23.8177 30.5536 24.2088C30.9447 24.6 31.1659 25.1295 31.1691 25.6827C31.1695 25.9536 31.1158 26.2218 31.0111 26.4717C30.9064 26.7215 30.7529 26.9479 30.5595 27.1376Z" fill="#DB0000"/>
<path d="M54.973 13.9832L48.0145 7.02677C47.4129 6.42289 46.5962 6.08241 45.7438 6.08009C44.8913 6.07777 44.0728 6.41378 43.4679 7.01437L34.2712 16.211C33.6706 16.816 33.3346 17.6345 33.3369 18.4869C33.3393 19.3394 33.6797 20.1561 34.2836 20.7577L41.2379 27.7162C41.8411 28.3191 42.6584 28.6587 43.5113 28.6606C43.9306 28.6616 44.346 28.5798 44.7337 28.4199C45.1213 28.2599 45.4735 28.025 45.7701 27.7286L54.973 18.5278C55.5751 17.9248 55.9133 17.1076 55.9133 16.2555C55.9133 15.4034 55.5751 14.5861 54.973 13.9832ZM44.3214 26.2592C44.1055 26.4712 43.8144 26.589 43.5118 26.5866C43.2092 26.5843 42.9199 26.4621 42.7073 26.2468L35.753 19.2924C35.6459 19.1878 35.5606 19.063 35.5018 18.9253C35.443 18.7876 35.4119 18.6396 35.4104 18.4899C35.4089 18.3401 35.4369 18.1916 35.4928 18.0527C35.5488 17.9138 35.6316 17.7873 35.7365 17.6804L38.0718 15.3492L46.6526 23.93L44.3214 26.2592ZM48.1179 22.4606L39.5371 13.8798L41.9055 11.5114L50.4863 20.0922L48.1179 22.4606ZM53.5263 17.0584L51.9598 18.6249L43.3687 10.0462L44.9373 8.47344C45.0413 8.36915 45.1651 8.28658 45.3013 8.23053C45.4375 8.17447 45.5836 8.14605 45.7309 8.14691C45.8844 8.14584 46.0366 8.17546 46.1786 8.23402C46.3206 8.29257 46.4494 8.37889 46.5575 8.48791L53.5057 15.4484C53.7218 15.6592 53.8455 15.9472 53.8493 16.2491C53.8532 16.551 53.737 16.8421 53.5263 17.0584Z" fill="#DB0000"/>
<path d="M60.5059 13.3899L48.6102 1.49214C47.6659 0.541701 46.3829 0.00516937 45.0431 0.000518767C43.7033 -0.00413183 42.4166 0.52348 41.4657 1.46734L41.3603 1.57481L21.5658 22.5783C20.6611 23.535 20.1676 24.8082 20.1912 26.1246C20.2148 27.4411 20.7535 28.6958 21.6919 29.6195L23.5973 31.527L1.40754 53.7147C0.956992 54.1641 0.600487 54.6987 0.358843 55.2874C0.117199 55.8761 -0.004742 56.507 0.000141059 57.1433C0.00719612 58.4292 0.521145 59.6605 1.43042 60.5697C2.3397 61.479 3.57092 61.993 4.85681 62H4.87747C5.51016 62.0018 6.13692 61.8782 6.72153 61.6363C7.30613 61.3943 7.83697 61.0389 8.28334 60.5905L8.47347 60.3983L9.28567 57.505L12.5923 56.4717L13.419 53.3593L16.7257 52.3259L17.5523 49.2135L20.859 48.1802L21.6857 45.0947L24.4901 44.3445L30.4607 38.3739L32.3683 40.2814C32.8389 40.756 33.3987 41.1328 34.0155 41.3903C34.6323 41.6478 35.2938 41.7809 35.9622 41.7818C37.2449 41.7821 38.4788 41.2902 39.4094 40.4075L60.4233 20.6398C60.9139 20.1745 61.3061 19.6155 61.5767 18.9958C61.8472 18.3762 61.9906 17.7085 61.9983 17.0324C62.006 16.3562 61.8779 15.6855 61.6216 15.0598C61.3652 14.4341 60.9858 13.8663 60.5059 13.3899ZM2.87281 55.18L25.0626 32.9902L25.7818 33.7094L2.09781 57.3934C2.05472 56.9901 2.10191 56.5822 2.23595 56.1994C2.37 55.8166 2.58754 55.4684 2.87281 55.18ZM23.4299 42.5196L20.0055 43.4289L19.1664 46.5682L15.8597 47.6015L15.0331 50.7139L11.7264 51.7473L10.8997 54.8617L7.59307 55.8847L6.63001 59.3133C6.1346 59.7193 5.51386 59.9412 4.87334 59.9412C4.23283 59.9412 3.61208 59.7193 3.11667 59.3133L27.2471 35.1747L29.0058 36.9334L23.4299 42.5196ZM59.0035 19.1332L37.9999 38.9257C37.4339 39.4579 36.6819 39.7473 35.905 39.7319C35.1282 39.7164 34.3883 39.3974 33.8439 38.843L23.1468 28.1563C22.5923 27.6115 22.2732 26.8712 22.2577 26.0941C22.2423 25.3169 22.5318 24.5645 23.0641 23.9981L42.8649 2.99461C43.1354 2.70621 43.4614 2.47538 43.8232 2.31593C44.1851 2.15649 44.5754 2.07171 44.9708 2.06668H45.0163C45.412 2.06595 45.8039 2.14376 46.1693 2.2956C46.5347 2.44743 46.8663 2.67028 47.1449 2.95121L59.0427 14.849C59.3308 15.133 59.5583 15.4724 59.7114 15.8468C59.8645 16.2213 59.94 16.6228 59.9335 17.0273C59.929 17.423 59.8443 17.8136 59.6844 18.1756C59.5246 18.5376 59.2929 18.8634 59.0035 19.1332Z" fill="#DB0000"/>
<path d="M5.03678 31.1137C5.03678 24.7628 8.55011 17.887 14.3368 14.7581C17.5773 13.0035 21.287 12.4186 24.945 12.4186C26.061 12.4186 26.063 10.6806 24.945 10.6826C18.7016 10.6826 12.39 12.5426 8.28145 17.4861C5.70225 20.5861 4.14811 24.4549 3.55498 28.425C3.40434 29.313 3.31937 30.211 3.30078 31.1116C3.30078 32.2276 5.03471 32.2297 5.03678 31.1116V31.1137Z" fill="#DB0000"/>
<path d="M19.3312 8.4157L24.4979 12.299V10.8006L19.3312 14.5806C18.4384 15.2316 19.3044 16.7402 20.2075 16.0789L25.3742 12.299C25.9322 11.8856 25.9198 11.2119 25.3742 10.8006L20.2075 6.91737C19.3147 6.2457 18.4488 7.74404 19.3312 8.4157Z" fill="#DB0000"/>
<path d="M52.5617 36.1522C52.5617 42.501 49.0484 49.3789 43.2617 52.5078C40.015 54.2624 36.3033 54.8473 32.6473 54.8473C31.5313 54.8473 31.5293 56.5833 32.6473 56.5833C38.8907 56.5833 45.2023 54.7233 49.3109 49.7798C51.8901 46.6798 53.4442 42.811 54.0373 38.8409C54.1869 37.9527 54.2718 37.0548 54.2915 36.1543C54.2915 35.0362 52.5576 35.0341 52.5555 36.1543L52.5617 36.1522Z" fill="#DB0000"/>
<path d="M38.264 58.8504L33.0973 54.965V56.4654L38.264 52.6855C39.1589 52.0324 38.2929 50.5258 37.3877 51.1872L32.2211 54.965C31.661 55.3784 31.6734 56.0542 32.2211 56.4654L37.3877 60.3487C38.2826 61.0204 39.1485 59.522 38.264 58.8504Z" fill="#DB0000"/>
</g>
<defs>
<clipPath id="clip0_73_5">
<rect width="62" height="62" fill="white"/>
</clipPath>
</defs>
</svg>
