<svg width="62" height="62" viewBox="0 0 62 62" fill="none" xmlns="http://www.w3.org/2000/svg">
<g clip-path="url(#clip0_73_50)">
<path d="M35.9952 22.341H26.452C24.4099 22.341 22.7481 24.0194 22.7481 26.0782V35.4546C22.7481 37.5134 24.4099 39.1919 26.452 39.1919H35.9952C38.034 39.1919 39.6958 37.5168 39.6958 35.4546V26.0782C39.6958 24.0194 38.0374 22.341 35.9952 22.341ZM48.0511 2.68053C48.0538 2.22977 47.8775 1.79636 47.561 1.47543C47.2444 1.1545 46.8135 0.972278 46.3627 0.96875C46.1387 0.969185 45.9169 1.01386 45.7102 1.1002C45.5034 1.18654 45.3158 1.31286 45.158 1.4719C45.0002 1.63094 44.8753 1.81958 44.7906 2.02699C44.7059 2.2344 44.6629 2.45649 44.6643 2.68053V6.10743H48.0578V2.68053H48.0511ZM42.0249 2.68053C42.0262 2.45677 41.9833 2.23495 41.8988 2.02776C41.8143 1.82057 41.6898 1.63208 41.5323 1.47308C41.3749 1.31408 41.1876 1.1877 40.9813 1.10116C40.7749 1.01462 40.5535 0.969624 40.3298 0.96875C40.1057 0.969185 39.884 1.01386 39.6772 1.1002C39.4705 1.18654 39.2828 1.31286 39.125 1.4719C38.9672 1.63094 38.8424 1.81958 38.7577 2.02699C38.6729 2.2344 38.63 2.45649 38.6313 2.68053V6.10743H42.0249V2.68053ZM35.9952 2.68053C35.9966 2.45649 35.9536 2.2344 35.8689 2.02699C35.7842 1.81958 35.6593 1.63094 35.5015 1.4719C35.3437 1.31286 35.1561 1.18654 34.9493 1.1002C34.7426 1.01386 34.5209 0.969185 34.2968 0.96875C34.0731 0.969624 33.8517 1.01462 33.6453 1.10116C33.439 1.1877 33.2517 1.31408 33.0942 1.47308C32.9368 1.63208 32.8123 1.82057 32.7277 2.02776C32.6432 2.23495 32.6004 2.45677 32.6017 2.68053V6.10743H35.9952V2.68053ZM29.9656 2.68053C29.967 2.45621 29.9239 2.23384 29.839 2.02622C29.7541 1.81859 29.6289 1.62981 29.4708 1.47072C29.3126 1.31164 29.1246 1.18539 28.9174 1.09924C28.7103 1.01309 28.4882 0.968746 28.2639 0.96875C28.0401 0.969624 27.8187 1.01462 27.6124 1.10116C27.406 1.1877 27.2188 1.31408 27.0613 1.47308C26.9039 1.63208 26.7793 1.82057 26.6948 2.02776C26.6103 2.23495 26.5675 2.45677 26.5688 2.68053V6.10743H29.9623L29.9656 2.68053ZM23.9327 2.68053C23.934 2.45677 23.8912 2.23495 23.8067 2.02776C23.7222 1.82057 23.5976 1.63208 23.4402 1.47308C23.2827 1.31408 23.0955 1.1877 22.8891 1.10116C22.6828 1.01462 22.4614 0.969624 22.2376 0.96875C22.0138 0.969624 21.7924 1.01462 21.5861 1.10116C21.3797 1.1877 21.1925 1.31408 21.035 1.47308C20.8776 1.63208 20.753 1.82057 20.6685 2.02776C20.584 2.23495 20.5412 2.45677 20.5425 2.68053V6.10743H23.9327V2.68053ZM17.9031 2.68053C17.9044 2.45677 17.8616 2.23495 17.7771 2.02776C17.6926 1.82057 17.568 1.63208 17.4106 1.47308C17.2531 1.31408 17.0659 1.1877 16.8595 1.10116C16.6531 1.01462 16.4318 0.969624 16.208 0.96875C15.9842 0.969624 15.7628 1.01462 15.5565 1.10116C15.3501 1.1877 15.1629 1.31408 15.0054 1.47308C14.848 1.63208 14.7234 1.82057 14.6389 2.02776C14.5544 2.23495 14.5116 2.45677 14.5129 2.68053V6.10743H17.9031V2.68053ZM14.5129 59.3195C14.5116 59.5432 14.5544 59.7651 14.6389 59.9722C14.7234 60.1794 14.848 60.3679 15.0054 60.5269C15.1629 60.6859 15.3501 60.8123 15.5565 60.8988C15.7628 60.9854 15.9842 61.0304 16.208 61.0313C16.4318 61.0304 16.6531 60.9854 16.8595 60.8988C17.0659 60.8123 17.2531 60.6859 17.4106 60.5269C17.568 60.3679 17.6926 60.1794 17.7771 59.9722C17.8616 59.7651 17.9044 59.5432 17.9031 59.3195V55.8926H14.5162V59.3161L14.5129 59.3195ZM20.5425 59.3195C20.5412 59.5432 20.584 59.7651 20.6685 59.9722C20.753 60.1794 20.8776 60.3679 21.035 60.5269C21.1925 60.6859 21.3797 60.8123 21.5861 60.8988C21.7924 60.9854 22.0138 61.0304 22.2376 61.0313C22.4614 61.0304 22.6828 60.9854 22.8891 60.8988C23.0955 60.8123 23.2827 60.6859 23.4402 60.5269C23.5976 60.3679 23.7222 60.1794 23.8067 59.9722C23.8912 59.7651 23.934 59.5432 23.9327 59.3195V55.8926H20.5425V59.3195ZM26.5721 59.3195C26.5708 59.5432 26.6136 59.7651 26.6981 59.9722C26.7826 60.1794 26.9072 60.3679 27.0646 60.5269C27.2221 60.6859 27.4093 60.8123 27.6157 60.8988C27.8221 60.9854 28.0434 61.0304 28.2672 61.0313C28.4912 61.0308 28.713 60.9861 28.9197 60.8998C29.1265 60.8135 29.3141 60.6871 29.4719 60.5281C29.6297 60.3691 29.7546 60.1804 29.8393 59.973C29.924 59.7656 29.967 59.5435 29.9656 59.3195V55.8926H26.5721V59.3195ZM32.6017 59.3195C32.6004 59.5432 32.6432 59.7651 32.7277 59.9722C32.8123 60.1794 32.9368 60.3679 33.0942 60.5269C33.2517 60.6859 33.439 60.8123 33.6453 60.8988C33.8517 60.9854 34.0731 61.0304 34.2968 61.0313C34.5209 61.0308 34.7426 60.9861 34.9493 60.8998C35.1561 60.8135 35.3437 60.6871 35.5015 60.5281C35.6593 60.3691 35.7842 60.1804 35.8689 59.973C35.9536 59.7656 35.9966 59.5435 35.9952 59.3195V55.8926H32.6017V59.3195ZM38.6313 59.3195C38.63 59.5432 38.6728 59.7651 38.7573 59.9722C38.8419 60.1794 38.9664 60.3679 39.1239 60.5269C39.2813 60.6859 39.4686 60.8123 39.6749 60.8988C39.8813 60.9854 40.1027 61.0304 40.3264 61.0313C40.5505 61.0308 40.7722 60.9861 40.979 60.8998C41.1857 60.8135 41.3733 60.6871 41.5311 60.5281C41.6889 60.3691 41.8138 60.1804 41.8985 59.973C41.9832 59.7656 42.0262 59.5435 42.0249 59.3195V55.8926H38.6313V59.3195ZM44.6609 59.3195C44.6596 59.5435 44.7025 59.7656 44.7873 59.973C44.872 60.1804 44.9968 60.3691 45.1546 60.5281C45.3124 60.6871 45.5001 60.8135 45.7068 60.8998C45.9136 60.9861 46.1353 61.0308 46.3594 61.0313C46.5831 61.0304 46.8045 60.9854 47.0109 60.8988C47.2172 60.8123 47.4045 60.6859 47.5619 60.5269C47.7194 60.3679 47.8439 60.1794 47.9284 59.9722C48.013 59.7651 48.0558 59.5432 48.0545 59.3195V55.8926H44.6609V59.3195ZM59.3362 43.9368H55.9427V47.3604H59.3362C59.56 47.3595 59.7814 47.3145 59.9877 47.228C60.1941 47.1414 60.3813 47.015 60.5388 46.856C60.6962 46.697 60.8208 46.5085 60.9053 46.3014C60.9898 46.0942 61.0326 45.8723 61.0313 45.6486C61.0326 45.4248 60.9898 45.203 60.9053 44.9958C60.8208 44.7886 60.6962 44.6001 60.5388 44.4411C60.3813 44.2821 60.1941 44.1557 59.9877 44.0692C59.7814 43.9827 59.56 43.9377 59.3362 43.9368ZM59.3362 37.8471H55.9427V41.274H59.3362C59.5602 41.2732 59.7819 41.2281 59.9885 41.1413C60.1951 41.0546 60.3825 40.9279 60.54 40.7685C60.6974 40.6092 60.8219 40.4203 60.9062 40.2127C60.9906 40.0051 61.0331 39.7829 61.0313 39.5589C61.0326 39.3351 60.9898 39.1133 60.9053 38.9061C60.8208 38.6989 60.6962 38.5105 60.5388 38.3515C60.3813 38.1925 60.1941 38.0661 59.9877 37.9795C59.7814 37.893 59.56 37.848 59.3362 37.8471ZM59.3362 31.7608H55.9427V35.1844H59.3362C59.56 35.1835 59.7814 35.1385 59.9877 35.0519C60.1941 34.9654 60.3813 34.839 60.5388 34.68C60.6962 34.521 60.8208 34.3325 60.9053 34.1253C60.9898 33.9182 61.0326 33.6963 61.0313 33.4726C61.0326 33.2488 60.9898 33.027 60.9053 32.8198C60.8208 32.6126 60.6962 32.4241 60.5388 32.2651C60.3813 32.1061 60.1941 31.9797 59.9877 31.8932C59.7814 31.8067 59.56 31.7617 59.3362 31.7608ZM59.3362 25.6745H55.9427V29.098H59.3362C59.56 29.0971 59.7814 29.0522 59.9877 28.9656C60.1941 28.8791 60.3813 28.7527 60.5388 28.5937C60.6962 28.4347 60.8208 28.2462 60.9053 28.039C60.9898 27.8318 61.0326 27.61 61.0313 27.3862C61.0326 27.1625 60.9898 26.9407 60.9053 26.7335C60.8208 26.5263 60.6962 26.3378 60.5388 26.1788C60.3813 26.0198 60.1941 25.8934 59.9877 25.8069C59.7814 25.7203 59.56 25.6753 59.3362 25.6745ZM59.3362 19.5881H55.9427V23.0117H59.3362C59.56 23.0108 59.7814 22.9658 59.9877 22.8793C60.1941 22.7927 60.3813 22.6664 60.5388 22.5074C60.6962 22.3484 60.8208 22.1599 60.9053 21.9527C60.9898 21.7455 61.0326 21.5237 61.0313 21.2999C61.0331 21.0759 60.9906 20.8537 60.9062 20.6461C60.8219 20.4385 60.6974 20.2497 60.54 20.0903C60.3825 19.9309 60.1951 19.8043 59.9885 19.7175C59.7819 19.6308 59.5602 19.589 59.3362 19.5881ZM61.0313 15.2102C61.0326 14.9865 60.9898 14.7647 60.9053 14.5575C60.8208 14.3503 60.6962 14.1618 60.5388 14.0028C60.3813 13.8438 60.1941 13.7174 59.9877 13.6309C59.7814 13.5443 59.56 13.4993 59.3362 13.4985H55.9427V16.922H59.3362C59.56 16.9211 59.7814 16.8762 59.9877 16.7896C60.1941 16.7031 60.3813 16.5767 60.5388 16.4177C60.6962 16.2587 60.8208 16.0702 60.9053 15.863C60.9898 15.6558 61.0326 15.434 61.0313 15.2102ZM0.968802 15.2102C0.967484 15.434 1.01031 15.6558 1.09482 15.863C1.17934 16.0702 1.30388 16.2587 1.46133 16.4177C1.61878 16.5767 1.80604 16.7031 2.01239 16.7896C2.21874 16.8762 2.44014 16.9211 2.6639 16.922H6.05743V13.4985H2.6639C2.44014 13.4993 2.21874 13.5443 2.01239 13.6309C1.80604 13.7174 1.61878 13.8438 1.46133 14.0028C1.30388 14.1618 1.17934 14.3503 1.09482 14.5575C1.01031 14.7647 0.967484 14.9865 0.968802 15.2102ZM0.968802 21.2999C0.967484 21.5237 1.01031 21.7455 1.09482 21.9527C1.17934 22.1599 1.30388 22.3484 1.46133 22.5074C1.61878 22.6664 1.80604 22.7927 2.01239 22.8793C2.21874 22.9658 2.44014 23.0108 2.6639 23.0117H6.05743V19.5848H2.6639C2.43985 19.5857 2.21819 19.6308 2.01162 19.7175C1.80504 19.8043 1.61764 19.9309 1.46014 20.0903C1.30265 20.2497 1.17818 20.4385 1.09386 20.6461C1.00954 20.8537 0.967044 21.0759 0.968802 21.2999ZM0.968802 27.3862C0.967484 27.61 1.01031 27.8318 1.09482 28.039C1.17934 28.2462 1.30388 28.4347 1.46133 28.5937C1.61878 28.7527 1.80604 28.8791 2.01239 28.9656C2.21874 29.0522 2.44014 29.0971 2.6639 29.098H6.05743V25.6745H2.6639C2.44014 25.6753 2.21874 25.7203 2.01239 25.8069C1.80604 25.8934 1.61878 26.0198 1.46133 26.1788C1.30388 26.3378 1.17934 26.5263 1.09482 26.7335C1.01031 26.9407 0.967484 27.1625 0.968802 27.3862ZM0.968802 33.4726C0.967484 33.6963 1.01031 33.9182 1.09482 34.1253C1.17934 34.3325 1.30388 34.521 1.46133 34.68C1.61878 34.839 1.80604 34.9654 2.01239 35.0519C2.21874 35.1385 2.44014 35.1835 2.6639 35.1844H6.05743V31.7608H2.6639C2.44014 31.7617 2.21874 31.8067 2.01239 31.8932C1.80604 31.9797 1.61878 32.1061 1.46133 32.2651C1.30388 32.4241 1.17934 32.6126 1.09482 32.8198C1.01031 33.027 0.967484 33.2488 0.968802 33.4726ZM0.968802 39.5589C0.967044 39.7829 1.00954 40.0051 1.09386 40.2127C1.17818 40.4203 1.30265 40.6092 1.46014 40.7685C1.61764 40.9279 1.80504 41.0546 2.01162 41.1413C2.21819 41.2281 2.43985 41.2732 2.6639 41.274H6.05743V37.8471H2.6639C2.44014 37.848 2.21874 37.893 2.01239 37.9795C1.80604 38.0661 1.61878 38.1925 1.46133 38.3515C1.30388 38.5105 1.17934 38.6989 1.09482 38.9061C1.01031 39.1133 0.967484 39.3351 0.968802 39.5589ZM0.968802 45.6486C0.967484 45.8723 1.01031 46.0942 1.09482 46.3014C1.17934 46.5085 1.30388 46.697 1.46133 46.856C1.61878 47.015 1.80604 47.1414 2.01239 47.228C2.21874 47.3145 2.44014 47.3595 2.6639 47.3604H6.05743V43.9368H2.6639C2.44014 43.9377 2.21874 43.9827 2.01239 44.0692C1.80604 44.1557 1.61878 44.2821 1.46133 44.4411C1.30388 44.6001 1.17934 44.7886 1.09482 44.9958C1.01031 45.203 0.967484 45.4248 0.968802 45.6486Z" fill="#DB0000"/>
<path d="M51.585 7.75586H10.6091C10.3107 7.75717 10.0154 7.81725 9.74024 7.93266C9.46504 8.04807 9.21527 8.21655 9.00519 8.42849C8.79512 8.64043 8.62884 8.89167 8.51586 9.16787C8.40287 9.44407 8.3454 9.73982 8.34672 10.0382V51.4046C8.34496 51.7029 8.40202 51.9985 8.51464 52.2747C8.62726 52.5509 8.79322 52.8022 9.00303 53.0142C9.21285 53.2261 9.46239 53.3947 9.7374 53.5101C10.0124 53.6256 10.3075 53.6857 10.6057 53.687H41.8216L41.8349 53.8038H45.2251L45.2351 53.687H51.585C51.8833 53.6857 52.1784 53.6256 52.4534 53.5101C52.7284 53.3947 52.9779 53.2261 53.1878 53.0142C53.3976 52.8022 53.5635 52.5509 53.6761 52.2747C53.7888 51.9985 53.8458 51.7029 53.8441 51.4046V10.0382C53.8458 9.73998 53.7888 9.44431 53.6761 9.16813C53.5635 8.89195 53.3976 8.64068 53.1878 8.42869C52.9779 8.21671 52.7284 8.04817 52.4534 7.93272C52.1784 7.81727 51.8833 7.75717 51.585 7.75586ZM50.5506 26.3986H46.8368C46.6584 25.894 46.3288 25.4567 45.8929 25.1462C45.4571 24.8357 44.9361 24.6672 44.4009 24.6635C42.9661 24.6635 41.7982 25.838 41.7982 27.2862C41.7982 28.7377 42.9661 29.9122 44.4009 29.9122C44.9364 29.91 45.4581 29.742 45.8942 29.4313C46.3304 29.1206 46.6597 28.6825 46.8368 28.1771H50.554V33.4192C50.2736 33.3888 49.9918 33.3744 49.7098 33.3759H46.69C46.5124 32.8708 46.1831 32.4329 45.747 32.1223C45.3109 31.8117 44.7895 31.6435 44.2541 31.6407C43.9107 31.642 43.5709 31.711 43.2542 31.8437C42.9375 31.9765 42.6501 32.1703 42.4084 32.4142C42.1666 32.6581 41.9754 32.9473 41.8455 33.2651C41.7156 33.583 41.6496 33.9234 41.6514 34.2668C41.6514 35.715 42.8159 36.8928 44.2541 36.8928C44.7895 36.8901 45.3109 36.7219 45.747 36.4113C46.1831 36.1007 46.5124 35.6628 46.69 35.1577H49.7098C50.0568 35.1577 50.3237 35.1744 50.554 35.2144V49.3892C50.554 49.9264 50.1202 50.3635 49.5863 50.3635H44.3609C44.3775 49.1089 44.3876 47.4805 44.3876 46.6096C44.3876 44.0536 42.9594 42.5287 40.5703 42.5287H36.9899C36.7562 41.9741 36.3364 41.5184 35.8028 41.24C35.2692 40.9617 34.6552 40.8782 34.0666 41.0039C33.4781 41.1296 32.9518 41.4566 32.5785 41.9286C32.2051 42.4007 32.0081 42.9881 32.0214 43.5898C32.0214 45.038 33.1892 46.2159 34.6241 46.2159C35.1941 46.213 35.7474 46.0227 36.1985 45.6741C36.6496 45.3255 36.9734 44.8381 37.12 44.2872V44.3106H40.5703C41.9917 44.3106 42.6257 45.018 42.6257 46.6096C42.6257 47.4905 42.6124 49.1089 42.599 50.3635H17.8499L17.8399 46.6096C17.8399 45.018 18.4739 44.3072 19.8987 44.3072H25.231C25.5413 45.4084 26.5323 46.2159 27.7202 46.2159C29.155 46.2159 30.3229 45.0413 30.3229 43.5898C30.3247 43.2464 30.2587 42.9061 30.1288 42.5882C29.9989 42.2703 29.8077 41.9811 29.5659 41.7372C29.3242 41.4934 29.0368 41.2995 28.7201 41.1668C28.4034 41.034 28.0636 40.9651 27.7202 40.9637C27.2146 40.9658 26.7205 41.1152 26.2985 41.3937C25.8766 41.6723 25.545 42.0679 25.3444 42.532H19.8987C17.5063 42.532 16.0781 44.0536 16.0781 46.6096C16.0781 46.8132 16.0781 48.6451 16.0881 50.3635H12.6045C12.477 50.3631 12.3508 50.3375 12.2331 50.2883C12.1155 50.2391 12.0087 50.1672 11.9189 50.0768C11.829 49.9863 11.7578 49.879 11.7094 49.761C11.6611 49.643 11.6364 49.5167 11.6368 49.3892V35.0209C13.2318 35.0276 14.8168 35.0409 15.6076 35.0509C15.7842 35.5578 16.1136 35.9975 16.5504 36.3094C16.9873 36.6213 17.5101 36.7902 18.0468 36.7927C19.4816 36.7927 20.6495 35.6148 20.6495 34.1667C20.6513 33.8233 20.5853 33.4829 20.4554 33.165C20.3255 32.8472 20.1343 32.558 19.8925 32.3141C19.6508 32.0702 19.3634 31.8764 19.0467 31.7436C18.73 31.6109 18.3902 31.5419 18.0468 31.5406C17.5122 31.5429 16.9914 31.7101 16.5554 32.0194C16.1194 32.3288 15.7896 32.7652 15.6109 33.2691C14.8101 33.2624 13.2318 33.2491 11.6401 33.2424V28.2272H15.7511C16.1148 29.2382 17.0625 29.9623 18.187 29.9623C19.6251 29.9623 20.7897 28.7877 20.7897 27.3362C20.791 26.9931 20.7247 26.6531 20.5946 26.3356C20.4645 26.0181 20.2732 25.7294 20.0315 25.4858C19.7898 25.2423 19.5025 25.0487 19.186 24.9162C18.8696 24.7837 18.5301 24.7148 18.187 24.7135C17.6515 24.7158 17.1298 24.8838 16.6936 25.1945C16.2575 25.5052 15.9282 25.9433 15.7511 26.4486H11.6401V12.0503C11.6401 11.5131 12.0739 11.076 12.6078 11.076H26.846V15.2804C26.3416 15.4651 25.9062 15.8004 25.5988 16.2409C25.2914 16.6814 25.1269 17.2058 25.1275 17.7429C25.1275 19.1911 26.2921 20.369 27.7269 20.369C29.1617 20.369 30.3296 19.1944 30.3296 17.7429C30.3298 17.2058 30.1646 16.6817 29.8566 16.2418C29.5485 15.8018 29.1125 15.4673 28.6078 15.2837V11.0793H33.7465V15.3571C33.2415 15.5413 32.8054 15.8764 32.4974 16.3169C32.1894 16.7575 32.0243 17.2821 32.0247 17.8197C32.0247 19.2678 33.1892 20.4457 34.6274 20.4457C36.0622 20.4457 37.2234 19.2678 37.2234 17.8197C37.2238 17.283 37.0592 16.7592 36.7518 16.3192C36.4444 15.8793 36.0091 15.5446 35.505 15.3604V11.0793H49.5896C50.1235 11.0793 50.5573 11.5131 50.5573 12.0537V26.3953L50.5506 26.3986Z" fill="#DB0000"/>
</g>
<defs>
<clipPath id="clip0_73_50">
<rect width="62" height="62" fill="white"/>
</clipPath>
</defs>
</svg>
