<svg width="51" height="62" viewBox="0 0 51 62" fill="none" xmlns="http://www.w3.org/2000/svg">
<path fill-rule="evenodd" clip-rule="evenodd" d="M5.07665 22.1276H3.39976C2.49735 22.1287 1.6323 22.4881 0.994785 23.1268C0.357266 23.7654 -0.000547318 24.6311 6.28406e-07 25.5336V58.6011C0.00109511 59.5024 0.359634 60.3665 0.996975 61.0039C1.63432 61.6412 2.49842 61.9998 3.39976 62.0009H46.8009C47.7033 61.9998 48.5684 61.6404 49.2059 61.0017C49.8434 60.363 50.2012 59.4973 50.2007 58.5949V25.5274C50.1996 24.626 49.841 23.7619 49.2037 23.1246C48.5664 22.4872 47.7023 22.1287 46.8009 22.1276H7.73377C7.36425 15.7534 10.0718 9.42762 15.4426 5.74482C18.1898 3.86013 21.4187 2.80036 24.7484 2.6905C28.0782 2.58065 31.3699 3.42528 34.2353 5.1248C37.4948 7.09738 40.0486 10.0482 41.5329 13.557C41.814 14.2204 42.4072 14.6813 43.1636 14.4829C43.7836 14.3176 44.3685 13.5116 44.0895 12.8502C41.0142 5.53194 34.1692 0.36514 26.1338 0.0179312C18.6502 -0.306544 11.4993 3.79796 7.7937 10.273C5.74978 13.8828 4.80985 18.004 5.07665 22.1276ZM2.87134 24.9989C3.01152 24.8587 3.2015 24.7797 3.39976 24.7792H46.8009C46.8996 24.7795 46.9973 24.7992 47.0883 24.8373C47.1794 24.8754 47.262 24.931 47.3315 25.0011C47.401 25.0712 47.456 25.1543 47.4933 25.2457C47.5307 25.337 47.5496 25.4349 47.5491 25.5336V58.6011C47.5485 58.7994 47.4695 58.9893 47.3293 59.1295C47.1892 59.2697 46.9992 59.3487 46.8009 59.3493H3.39976C3.30106 59.349 3.20339 59.3292 3.11234 59.2912C3.02129 59.2531 2.93864 59.1974 2.86914 59.1273C2.79964 59.0573 2.74465 58.9742 2.70733 58.8828C2.67 58.7914 2.65106 58.6936 2.65161 58.5949V25.5274C2.65215 25.3291 2.73115 25.1391 2.87134 24.9989ZM21.6009 44.9996C22.3297 45.4865 23.1433 45.8233 23.9941 45.9954V49.8339C23.9941 51.541 26.6457 51.5431 26.6457 49.8339V45.9949C27.9283 45.735 29.1172 45.1032 30.0562 44.1641C31.3119 42.9084 32.0183 41.206 32.0205 39.4302C32.0205 38.1054 31.6277 36.8104 30.8917 35.7088C30.1556 34.6073 29.1095 33.7488 27.8856 33.2418C26.6616 32.7348 25.3148 32.6022 24.0155 32.8606C22.7162 33.1191 21.5227 33.757 20.5859 34.6938C19.6491 35.6306 19.0112 36.8241 18.7527 38.1234C18.4943 39.4228 18.6269 40.7695 19.1339 41.9935C19.6409 43.2174 20.4994 44.2636 21.6009 44.9996ZM23.0741 36.0635C23.7395 35.6188 24.5219 35.3815 25.3223 35.3815V35.3835C26.3948 35.3846 27.4231 35.811 28.1817 36.5693C28.9403 37.3275 29.3673 38.3556 29.3689 39.4281C29.3689 40.2285 29.1316 41.0108 28.6869 41.6763C28.2423 42.3418 27.6103 42.8604 26.8709 43.1667C26.1314 43.473 25.3178 43.5531 24.5328 43.397C23.7478 43.2409 23.0268 42.8555 22.4609 42.2895C21.8949 41.7236 21.5095 41.0025 21.3534 40.2176C21.1972 39.4326 21.2774 38.619 21.5837 37.8795C21.8899 37.1401 22.4086 36.5081 23.0741 36.0635Z" fill="#DB0000"/>
</svg>
