<svg width="36" height="62" viewBox="0 0 36 62" fill="none" xmlns="http://www.w3.org/2000/svg">
<path fill-rule="evenodd" clip-rule="evenodd" d="M26.454 1.21955C20.9492 -0.406518 15.0464 -0.406518 9.54166 1.21955C3.32539 3.09982 1.81748 8.22197 0.889873 12.871C0.151306 16.5902 -0.116864 20.6503 0.0457968 25.6815C0.22824 31.3264 1.25476 39.8393 1.85924 44.044C1.86885 44.1107 1.88622 44.1756 1.91071 44.2377C1.91295 44.2758 1.91776 44.3139 1.92518 44.3519C2.31425 46.3417 2.77805 48.2777 3.30121 50.1229C4.62008 54.7223 6.81819 59.6523 13.2433 61.3383C14.8712 61.7715 16.5543 61.994 18.2462 61.9995C20.9188 62.0207 23.5523 61.3952 25.8934 60.1833C29.9841 58.0344 31.5888 54.0776 32.7076 50.1229C33.9979 45.5772 35.5322 38.7049 35.9542 25.6836C36.1169 20.6627 35.8487 16.5922 35.1079 12.8834C34.1781 8.22197 32.6702 3.09982 26.454 1.21955ZM3.82436 44.0234C3.81445 43.9728 3.80001 43.9232 3.78125 43.8751C3.77988 43.8502 3.7774 43.8252 3.7738 43.8002C3.17811 39.6678 2.15819 31.1963 1.97574 25.6175C1.81968 20.7309 2.07685 16.7885 2.78904 13.2078C3.20888 11.1002 3.79798 8.69101 4.98716 6.80248C6.17634 4.91396 7.81394 3.66389 10.1417 2.95931C15.2619 1.44897 20.7513 1.44897 25.8715 2.95931C28.1993 3.66389 29.8281 4.88503 31.0282 6.80248C32.2284 8.71993 32.7867 11.1106 33.2154 13.2181C33.9276 16.7989 34.1847 20.7412 34.0287 25.6278C33.8089 32.3699 33.2505 41.1947 30.8458 49.6538C29.6742 53.7863 28.2234 56.8856 24.9504 58.5985C21.739 60.2887 17.7648 60.6399 13.762 59.5903C8.28214 58.1439 6.39176 53.966 5.16741 49.6538C4.65744 47.8603 4.20683 45.9656 3.82436 44.0234ZM26.3769 12.3233C26.3629 12.3012 26.3499 12.2784 26.3379 12.255L26.3049 12.2467C25.4916 10.6723 24.3003 9.65569 22.6649 9.1474C19.6141 8.19277 16.3165 8.19277 13.2657 9.1474C9.30472 10.3768 8.50021 14.5237 8.22325 18.8214C7.75285 26.0945 8.56615 33.2478 10.573 39.525C11.6061 42.7545 13.4767 44.4942 16.1365 44.7009C17.3538 44.7918 18.5768 44.7918 19.7941 44.7009C22.4538 44.4963 24.3244 42.7545 25.3576 39.525C27.3644 33.2478 28.1777 26.0883 27.7073 18.8214C27.6436 17.683 27.5469 16.2097 27.4238 15.4101C27.4199 15.3725 27.4184 15.335 27.4195 15.2976C27.2914 14.7272 26.9674 13.4752 26.3769 12.3233ZM29.3684 15.3768C29.4739 16.182 29.5529 17.4052 29.6197 18.4397L29.6373 18.7119C30.1319 26.1896 29.2922 33.566 27.2194 40.0477C25.9554 44.0066 23.4452 46.2423 19.9656 46.5109C18.643 46.6121 17.3139 46.6121 15.9914 46.5109C12.514 46.2464 10.0037 44.0066 8.73761 40.0477C6.67797 33.5681 5.83829 26.1896 6.31968 18.7119L6.32127 18.6882C6.52847 15.5942 6.95648 9.20275 12.6942 7.42211C16.1375 6.34563 19.859 6.34563 23.3023 7.42211C25.2295 8.01851 26.7204 9.18313 27.7555 10.8902C28.5982 12.2737 29.1561 13.7945 29.3995 15.3729L29.3684 15.3768ZM18.1643 49.3815C19.2977 49.3815 20.4176 49.151 21.4472 48.7058C21.8906 48.506 22.3715 48.3902 22.8625 48.365C23.3535 48.3399 23.845 48.4059 24.3088 48.5593C24.7727 48.7127 25.1998 48.9505 25.5659 49.2591C25.932 49.5676 26.2299 49.941 26.4425 50.3577C26.6551 50.7745 26.7782 51.2266 26.805 51.6881C26.8317 52.1496 26.7615 52.6116 26.5983 53.0476C26.4351 53.4836 26.1822 53.8852 25.8539 54.2293C25.5256 54.5734 25.1284 54.8534 24.6851 55.0532C22.6432 55.95 20.417 56.4148 18.1632 56.4148C15.9095 56.4148 13.6833 55.95 11.6414 55.0532C10.746 54.6494 10.0579 53.9277 9.72852 53.0469C9.39915 52.1661 9.45549 51.1984 9.88515 50.3567C10.3148 49.515 11.0826 48.8682 12.0196 48.5586C12.9566 48.249 13.986 48.3019 14.8815 48.7058C15.9111 49.151 17.031 49.3815 18.1643 49.3815ZM18.1632 54.6008C20.128 54.6008 22.0689 54.1967 23.8498 53.4168H23.8454C24.2628 53.2125 24.5793 52.8636 24.7282 52.444C24.877 52.0243 24.8465 51.5667 24.643 51.1679C24.4395 50.769 24.0791 50.4601 23.6378 50.3064C23.1965 50.1527 22.7089 50.1663 22.2781 50.3443C20.9862 50.9019 19.5815 51.1905 18.16 51.1905C16.7384 51.1905 15.3337 50.9019 14.0418 50.3443C13.6116 50.1703 13.1264 50.1595 12.6879 50.3141C12.2494 50.4687 11.8916 50.7769 11.6893 51.1739C11.487 51.571 11.456 52.0263 11.6028 52.4443C11.7496 52.8624 12.0628 53.2109 12.4767 53.4168C14.2576 54.1967 16.1985 54.6008 18.1632 54.6008ZM24.2987 26.6036C24.2987 26.4842 24.2737 26.3661 24.2251 26.2559C24.1764 26.1457 24.1052 26.0456 24.0153 25.9613C23.9255 25.877 23.8188 25.8102 23.7015 25.7648C23.5842 25.7193 23.4585 25.696 23.3316 25.6963H12.6663C12.4104 25.6963 12.1649 25.7919 11.984 25.962C11.803 26.1322 11.7013 26.3629 11.7013 26.6036C11.7013 26.8442 11.803 27.0749 11.984 27.2451C12.1649 27.4152 12.4104 27.5108 12.6663 27.5108H23.3316C23.4585 27.5111 23.5842 27.4878 23.7015 27.4424C23.8188 27.3969 23.9255 27.3301 24.0153 27.2458C24.1052 27.1616 24.1764 27.0614 24.2251 26.9512C24.2737 26.841 24.2987 26.7229 24.2987 26.6036ZM15.9636 13.8577C16.5031 13.3506 17.2346 13.0655 17.9976 13.0649C18.7605 13.0655 19.492 13.3506 20.0315 13.8577C20.571 14.3648 20.8743 15.0525 20.8749 15.7696V17.2304C21.1543 17.3494 21.3914 17.5415 21.5578 17.7836C21.7242 18.0258 21.813 18.3079 21.8135 18.5962V21.8898C21.8129 22.2874 21.6446 22.6687 21.3454 22.9499C21.0463 23.2311 20.6407 23.3893 20.2177 23.3898H15.7775C15.3544 23.3893 14.9488 23.2311 14.6497 22.9499C14.3505 22.6687 14.1822 22.2874 14.1816 21.8898V18.5962C14.1824 18.308 14.2713 18.026 14.4377 17.7838C14.6041 17.5417 14.841 17.3496 15.1202 17.2304V15.7696C15.1208 15.0525 15.4242 14.3648 15.9636 13.8577ZM18.6661 15.1386C18.4889 14.9716 18.2485 14.8776 17.9976 14.877C17.8732 14.8773 17.75 14.9006 17.6352 14.9456C17.5204 14.9906 17.4161 15.0564 17.3283 15.1393C17.2405 15.2222 17.171 15.3205 17.1237 15.4287C17.0763 15.5368 17.0521 15.6527 17.0524 15.7696V17.0941H18.9428V15.7676C18.9428 15.5317 18.8432 15.3055 18.6661 15.1386ZM16.1138 21.5716H19.8814V18.9123H16.1138V21.5716ZM17.9978 31.6324C18.1778 31.6332 18.3539 31.6819 18.5057 31.773C18.6574 31.8641 18.7786 31.9937 18.8551 32.1469C18.9086 32.2554 18.9844 32.353 19.078 32.434C19.1717 32.515 19.2814 32.5779 19.4009 32.6191C19.5204 32.6602 19.6474 32.6788 19.7746 32.6739C19.9017 32.6689 20.0266 32.6404 20.1421 32.5901C20.2575 32.5398 20.3613 32.4686 20.4475 32.3805C20.5337 32.2925 20.6006 32.1894 20.6444 32.077C20.6882 31.9647 20.708 31.8453 20.7027 31.7258C20.6974 31.6063 20.6671 31.4889 20.6136 31.3803C20.3419 30.8148 19.8714 30.3543 19.2811 30.0764C18.6909 29.7984 18.0169 29.7198 17.3723 29.8538C16.7277 29.9879 16.1518 30.3263 15.7413 30.8124C15.3309 31.2984 15.1109 31.9024 15.1183 32.523V33.9838C14.8389 34.1028 14.6018 34.2948 14.4354 34.537C14.269 34.7792 14.1802 35.0612 14.1797 35.3496V38.639C14.1803 39.0367 14.3486 39.4179 14.6477 39.6991C14.9469 39.9803 15.3525 40.1385 15.7755 40.139H20.2157C20.6388 40.1385 21.0443 39.9803 21.3435 39.6991C21.6426 39.4179 21.811 39.0367 21.8115 38.639V35.3496C21.811 34.9519 21.6426 34.5706 21.3435 34.2894C21.0443 34.0082 20.6388 33.85 20.2157 33.8495H17.0526V32.523C17.0526 32.2871 17.1521 32.0609 17.3293 31.894C17.5065 31.727 17.7469 31.633 17.9978 31.6324ZM19.8816 38.327H16.114V35.6657H19.8816V38.327Z" fill="#DB0000"/>
</svg>
