<svg width="62" height="62" viewBox="0 0 62 62" fill="none" xmlns="http://www.w3.org/2000/svg">
<g clip-path="url(#clip0_73_26)">
<path d="M38.301 33.5852H23.4851C23.1089 33.5846 22.7483 33.4348 22.4825 33.1686C22.2167 32.9024 22.0674 32.5416 22.0674 32.1654V5.29871C22.0674 4.92251 22.2167 4.56169 22.4825 4.29549C22.7483 4.02928 23.1089 3.87945 23.4851 3.87891H38.301C38.6774 3.87945 39.0382 4.02921 39.3044 4.29536C39.5705 4.56151 39.7203 4.92232 39.7208 5.29871V32.1654C39.7203 32.5418 39.5705 32.9026 39.3044 33.1687C39.0382 33.4349 38.6774 33.5846 38.301 33.5852ZM23.729 31.9318H38.0592V5.54671H23.729V31.9318Z" fill="#DB0000"/>
<path d="M40.9534 37.8407H21.0473C20.3476 37.8415 19.6551 37.6994 19.0123 37.423C18.3696 37.1467 17.79 36.7419 17.3093 36.2335C16.8286 35.7251 16.4569 35.1238 16.2169 34.4666C15.9769 33.8094 15.8737 33.1101 15.9137 32.4115L17.6063 3.04627C17.6542 2.2229 18.0149 1.44896 18.6146 0.88272C19.2142 0.316478 20.0076 0.000712564 20.8323 0L41.1683 0C41.9931 0.000712564 42.7864 0.316478 43.3861 0.88272C43.9857 1.44896 44.3464 2.2229 44.3944 3.04627L46.087 32.4115C46.1269 33.1094 46.024 33.808 45.7845 34.4647C45.545 35.1213 45.174 35.7222 44.6942 36.2305C44.2143 36.7387 43.6358 37.1437 42.994 37.4206C42.3522 37.6975 41.6606 37.8404 40.9617 37.8407H40.9534ZM20.8323 1.65333C20.4318 1.65372 20.0465 1.80713 19.7553 2.08219C19.4641 2.35725 19.289 2.73317 19.2658 3.13307L17.5794 32.5066C17.5524 32.9787 17.6221 33.4514 17.7841 33.8956C17.9462 34.3399 18.1972 34.7463 18.5219 35.0902C18.8466 35.434 19.238 35.7079 19.6723 35.8951C20.1065 36.0824 20.5744 36.179 21.0473 36.1791H40.9534C41.4263 36.179 41.8942 36.0824 42.3284 35.8951C42.7627 35.7079 43.1541 35.434 43.4788 35.0902C43.8034 34.7463 44.0545 34.3399 44.2165 33.8956C44.3786 33.4514 44.4483 32.9787 44.4213 32.5066L42.7349 3.14133C42.7137 2.73997 42.5395 2.36199 42.2481 2.08519C41.9567 1.80839 41.5702 1.65383 41.1683 1.65333H20.8323Z" fill="#DB0000"/>
<path d="M33.0933 37.0097V57.8665L33.3123 57.3374L30.4954 60.7206H31.5515L28.4846 57.2072L28.7036 57.7363V55.029L28.4846 55.558L30.6711 53.3694C30.8093 53.2284 30.8867 53.0388 30.8867 52.8414C30.8867 52.6439 30.8093 52.4544 30.6711 52.3134L28.4391 50.0814V51.1374L30.4417 49.1348C30.579 48.9933 30.6557 48.8039 30.6557 48.6068C30.6557 48.4097 30.579 48.2203 30.4417 48.0788L28.4908 46.1278L28.7098 46.6569V37.0097C28.7098 36.0466 27.2157 36.0446 27.2157 37.0097V44.1252C27.2157 44.9271 27.0834 45.8592 27.2157 46.6528C27.3045 47.188 27.7509 47.5022 28.1209 47.8721L29.3836 49.1348V48.0788L27.383 50.0814C27.2448 50.2224 27.1674 50.4119 27.1674 50.6094C27.1674 50.8068 27.2448 50.9964 27.383 51.1374L29.6151 53.3694V52.3134C28.9145 53.014 28.0919 53.6815 27.474 54.4544C26.9263 55.1364 27.1929 56.5583 27.2074 57.3829C27.2239 58.2736 27.8646 58.7655 28.4288 59.4144L30.4954 61.7828C30.6357 61.9225 30.8255 62.001 31.0235 62.001C31.2214 62.001 31.4113 61.9225 31.5515 61.7828L33.2234 59.7761C33.6657 59.245 34.4634 58.5733 34.5895 57.8644C34.7548 56.8518 34.5895 55.6696 34.5895 54.6487V37.0097C34.5895 36.0466 33.0933 36.0446 33.0933 37.0097Z" fill="#DB0000"/>
<path d="M33.5747 29.6072H28.5196C28.195 29.604 27.8846 29.4736 27.6551 29.2441C27.4256 29.0146 27.2952 28.7042 27.292 28.3796V25.4016C27.2968 25.0781 27.4279 24.7693 27.6573 24.5411C27.8866 24.3129 28.1961 24.1834 28.5196 24.1802H33.5788C33.9034 24.1834 34.2137 24.3138 34.4433 24.5433C34.6728 24.7728 34.8032 25.0832 34.8064 25.4078V28.3858C34.8015 28.7101 34.6699 29.0195 34.4396 29.2478C34.2094 29.4761 33.8989 29.6051 33.5747 29.6072ZM28.5341 28.3672H33.5561V25.4202H28.5341V28.3672Z" fill="#DB0000"/>
<path d="M33.5043 24.8663L32.2643 24.7257C32.3201 24.2235 32.3408 22.781 31.7725 22.1465C31.6815 22.0445 31.5686 21.9644 31.4423 21.9122C31.3159 21.8599 31.1794 21.8369 31.043 21.8448C30.9025 21.838 30.7622 21.8623 30.6322 21.9159C30.5022 21.9694 30.3856 22.051 30.2907 22.1548C29.7038 22.7975 29.6913 24.2752 29.7327 24.7402L28.4927 24.8518C28.472 24.6121 28.315 22.4731 29.3731 21.3137C29.5851 21.0827 29.8438 20.8994 30.1321 20.7761C30.4203 20.6529 30.7316 20.5923 31.045 20.5986C31.3562 20.5922 31.665 20.6531 31.9504 20.7772C32.2358 20.9014 32.4909 21.0858 32.6984 21.3178C33.7441 22.4813 33.5312 24.6265 33.5043 24.8663Z" fill="#DB0000"/>
<path d="M33.5747 17.3953H28.5196C28.1929 17.392 27.8807 17.2599 27.6508 17.0278C27.4209 16.7956 27.292 16.482 27.292 16.1553V13.1876C27.2952 12.863 27.4256 12.5526 27.6551 12.3231C27.8846 12.0936 28.195 11.9632 28.5196 11.96H33.5788C33.9034 11.9632 34.2137 12.0936 34.4433 12.3231C34.6728 12.5526 34.8032 12.863 34.8064 13.1876V16.1656C34.8037 16.4913 34.673 16.8028 34.4425 17.0329C34.212 17.263 33.9003 17.3931 33.5747 17.3953ZM28.5341 16.1553H33.5561V13.2062H28.5341V16.1553Z" fill="#DB0000"/>
<path d="M29.9668 10.4944C30.2375 9.89709 30.7935 9.38456 31.4961 9.71936C31.8805 9.90536 32.0521 10.3394 32.1533 10.7238C32.3015 11.3321 32.3386 11.9622 32.2629 12.5838C32.174 13.3815 33.4202 13.3753 33.5029 12.5838C33.6165 11.567 33.5173 10.3538 32.9676 9.4693C31.9529 7.81596 29.6444 8.19623 28.8859 9.86816C28.5573 10.5915 29.632 11.226 29.9627 10.4882L29.9668 10.4944Z" fill="#DB0000"/>
</g>
<defs>
<clipPath id="clip0_73_26">
<rect width="62" height="62" fill="white"/>
</clipPath>
</defs>
</svg>
