<svg width="124" height="124" viewBox="0 0 124 124" fill="none" xmlns="http://www.w3.org/2000/svg">
<g clip-path="url(#clip0_61_5)">
<path fill-rule="evenodd" clip-rule="evenodd" d="M62 -1.90735e-06C96.2417 -1.90735e-06 124 27.7583 124 62C124 96.2417 96.2417 124 62 124C27.7583 124 0 96.2417 0 62C0 27.7583 27.7583 -1.90735e-06 62 -1.90735e-06ZM65.7133 25.255C69.9291 25.7812 73.3358 26.7967 77.0737 28.6199C80.7501 30.4187 83.103 32.1195 86.2158 35.2153C89.1326 38.1398 90.7502 40.3548 92.4658 43.7931C94.8556 48.5899 96.216 54.292 96.4487 60.5693C96.5346 62.7106 96.4733 63.1879 95.983 63.7997C95.0516 64.9868 93.005 64.7907 92.3066 63.4571C92.0859 63.0165 92.0246 62.6373 91.9511 60.9241C91.8285 58.2933 91.6449 56.5925 91.2772 54.5612C89.8311 46.5954 86.0074 40.2323 79.9044 35.6681C74.8186 31.8504 69.5613 29.9904 62.6742 29.5866C60.3457 29.452 59.9412 29.3665 59.4142 28.9627C58.4336 28.1917 58.3848 26.3808 59.3284 25.5365C59.9044 25.0103 60.3087 24.9368 62.3064 24.998C63.3481 25.0347 64.8799 25.1571 65.7133 25.255ZM37.6984 26.5766C38.1274 26.7234 38.7892 27.0659 39.1692 27.3107C41.4975 28.8526 47.9803 37.1364 50.1005 41.2724C51.3136 43.634 51.7181 45.3838 51.3384 46.6809C50.946 48.0759 50.2967 48.8101 47.3922 51.1473C46.2279 52.0894 45.1371 53.0561 44.9657 53.3131C44.5244 53.9495 44.1689 55.1975 44.1689 56.0785C44.1814 58.122 45.5049 61.8297 47.2452 64.6808C48.5931 66.8956 51.0072 69.7343 53.397 71.9125C56.2033 74.4823 58.6788 76.2318 61.473 77.6147C65.0637 79.4011 67.2574 79.8539 68.8629 79.1075C69.2673 78.924 69.6961 78.6792 69.8311 78.5692C69.9534 78.459 70.8972 77.3087 71.9266 76.0362C73.9118 73.5399 74.3653 73.1362 75.7257 72.6712C77.4537 72.0839 79.2184 72.2428 80.9953 73.1483C82.3434 73.8459 85.2845 75.6691 87.184 76.9906C89.6839 78.7404 95.0271 83.0966 95.7504 83.9656C97.0248 85.5318 97.2454 87.5383 96.3874 89.7533C95.4805 92.0903 91.9511 96.471 89.4878 98.3433C87.2575 100.032 85.6766 100.68 83.5933 100.778C81.8776 100.864 81.1669 100.717 78.9732 99.8115C61.7673 92.7266 48.0294 82.1545 37.1224 67.6297C31.4239 60.0431 27.0856 52.1752 24.1198 44.0135C22.392 39.2536 22.3063 37.1854 23.7277 34.7504C24.3406 33.7226 26.9508 31.1774 28.8503 29.7581C32.0122 27.4086 33.4705 26.5398 34.6347 26.2951C35.4312 26.1237 36.816 26.2584 37.6984 26.5766ZM66.5588 34.1263C73.9977 35.2153 79.7574 38.6661 83.532 44.2704C85.6522 47.4274 86.9757 51.135 87.4291 55.1118C87.5883 56.5679 87.5883 59.2233 87.4169 59.6639C87.2574 60.0798 86.7428 60.6427 86.3016 60.8751C85.8237 61.1199 84.8066 61.0955 84.2428 60.8017C83.2991 60.3246 83.0173 59.5659 83.0173 57.5102C83.0173 54.341 82.1962 51.0004 80.7748 48.4062C79.1571 45.445 76.8041 42.9978 73.9365 41.2969C71.4732 39.8285 67.8335 38.7396 64.5124 38.4704C63.3113 38.3724 62.6495 38.1277 62.1961 37.6015C61.4977 36.8061 61.424 35.7293 62.0122 34.8361C62.6495 33.845 63.6298 33.6858 66.5588 34.1263ZM69.1691 43.3648C71.5833 43.8788 73.434 44.7965 75.0148 46.2772C77.0491 48.1982 78.1644 50.5231 78.6545 53.8637C78.9853 56.0418 78.8506 56.8983 78.0785 57.608C77.3555 58.2688 76.0198 58.2932 75.2109 57.6692C74.6226 57.2286 74.4388 56.7637 74.304 55.5034C74.1448 53.827 73.8506 52.6523 73.3483 51.5632C72.2698 49.2506 70.3702 48.0514 67.1594 47.6598C65.6519 47.4763 65.1985 47.305 64.7085 46.73C63.8138 45.6654 64.1568 43.94 65.3946 43.3037C65.8604 43.0712 66.0565 43.0467 67.0858 43.1079C67.7231 43.1446 68.6668 43.2546 69.1691 43.3648Z" fill="#914AC0"/>
</g>
<defs>
<clipPath id="clip0_61_5">
<rect width="124" height="124" fill="white"/>
</clipPath>
</defs>
</svg>
